<?xml version="1.0" encoding="UTF-8" standalone="no"?><svg xmlns="http://www.w3.org/2000/svg" xmlns:xlink="http://www.w3.org/1999/xlink" contentScriptType="application/ecmascript" contentStyleType="text/css" height="1463px" preserveAspectRatio="none" style="width:1222px;height:1463px;" version="1.1" viewBox="0 0 1222 1463" width="1222.2px" zoomAndPan="magnify"><defs/><g><rect fill="#ABABAB" height="1289.0281" style="stroke:#383838;stroke-width:1.4;" width="14" x="147.7" y="97.9453"/><rect fill="#ABABAB" height="325.8609" style="stroke:#383838;stroke-width:1.4;" width="14" x="280.7" y="140.4375"/><rect fill="#ABABAB" height="19.6" style="stroke:#383838;stroke-width:1.4;" width="14" x="280.7" y="1022.8203"/><rect fill="#ABABAB" height="204.4766" style="stroke:#383838;stroke-width:1.4;" width="14" x="280.7" y="1130.2047"/><rect fill="#ABABAB" height="140.9844" style="stroke:#383838;stroke-width:1.4;" width="14" x="482.3" y="182.9297"/><rect fill="#ABABAB" height="80.2922" style="stroke:#383838;stroke-width:1.4;" width="14" x="482.3" y="366.4063"/><rect fill="#ABABAB" height="19.6" style="stroke:#383838;stroke-width:1.4;" width="14" x="482.3" y="551.2828"/><rect fill="#ABABAB" height="19.6" style="stroke:#383838;stroke-width:1.4;" width="14" x="482.3" y="695.0672"/><rect fill="#ABABAB" height="80.2922" style="stroke:#383838;stroke-width:1.4;" width="14" x="482.3" y="1172.6969"/><rect fill="#ABABAB" height="81.6922" style="stroke:#383838;stroke-width:1.4;" width="14" x="676.9" y="508.7906"/><rect fill="#ABABAB" height="19.6" style="stroke:#383838;stroke-width:1.4;" width="14" x="676.9" y="632.975"/><rect fill="#ABABAB" height="81.6922" style="stroke:#383838;stroke-width:1.4;" width="14" x="812.7" y="853.3438"/><rect fill="#ABABAB" height="19.6" style="stroke:#383838;stroke-width:1.4;" width="14" x="996.1" y="895.8359"/><rect fill="#ABABAB" height="19.6" style="stroke:#383838;stroke-width:1.4;" width="14" x="1119.3" y="1295.4812"/><rect fill="#FFFFFF" height="210.5688" style="stroke:#000000;stroke-width:2.8;" width="980" x="72.8" y="735.6672"/><rect fill="#FFFFFF" height="87.7844" style="stroke:#000000;stroke-width:2.8;" width="334.6" x="72.8" y="965.8359"/><rect fill="#FFFFFF" height="272.6609" style="stroke:#000000;stroke-width:2.8;" width="1141" x="72.8" y="1073.2203"/><line style="stroke:#383838;stroke-width:1.4;stroke-dasharray:5.0,5.0;" x1="39.2" x2="39.2" y1="52.6531" y2="1412.1734"/><line style="stroke:#383838;stroke-width:1.4;stroke-dasharray:5.0,5.0;" x1="154" x2="154" y1="52.6531" y2="1412.1734"/><line style="stroke:#383838;stroke-width:1.4;stroke-dasharray:5.0,5.0;" x1="287.7" x2="287.7" y1="52.6531" y2="1412.1734"/><line style="stroke:#383838;stroke-width:1.4;stroke-dasharray:5.0,5.0;" x1="489.3" x2="489.3" y1="52.6531" y2="1412.1734"/><line style="stroke:#383838;stroke-width:1.4;stroke-dasharray:5.0,5.0;" x1="683.2" x2="683.2" y1="52.6531" y2="1412.1734"/><line style="stroke:#383838;stroke-width:1.4;stroke-dasharray:5.0,5.0;" x1="819" x2="819" y1="52.6531" y2="1412.1734"/><line style="stroke:#383838;stroke-width:1.4;stroke-dasharray:5.0,5.0;" x1="1002.4" x2="1002.4" y1="52.6531" y2="1412.1734"/><line style="stroke:#383838;stroke-width:1.4;stroke-dasharray:5.0,5.0;" x1="1125.6" x2="1125.6" y1="52.6531" y2="1412.1734"/><rect fill="#F8F8F8" height="44.2531" style="stroke:#383838;stroke-width:2.0999999999999996;" width="65.8" x="7" y="7"/><text fill="#000000" font-family="sans-serif" font-size="19.6" lengthAdjust="spacingAndGlyphs" textLength="46.2" x="16.8" y="37.1465">Actor</text><rect fill="#F8F8F8" height="44.2531" style="stroke:#383838;stroke-width:2.0999999999999996;" width="65.8" x="7" y="1410.7734"/><text fill="#000000" font-family="sans-serif" font-size="19.6" lengthAdjust="spacingAndGlyphs" textLength="46.2" x="16.8" y="1440.9199">Actor</text><rect fill="#F8F8F8" height="44.2531" style="stroke:#383838;stroke-width:2.0999999999999996;" width="135.8" x="86.8" y="7"/><text fill="#000000" font-family="sans-serif" font-size="19.6" lengthAdjust="spacingAndGlyphs" textLength="116.2" x="96.6" y="37.1465">GameScreen</text><rect fill="#F8F8F8" height="44.2531" style="stroke:#383838;stroke-width:2.0999999999999996;" width="135.8" x="86.8" y="1410.7734"/><text fill="#000000" font-family="sans-serif" font-size="19.6" lengthAdjust="spacingAndGlyphs" textLength="116.2" x="96.6" y="1440.9199">GameScreen</text><rect fill="#F8F8F8" height="44.2531" style="stroke:#383838;stroke-width:2.0999999999999996;" width="75.6" x="249.9" y="7"/><text fill="#000000" font-family="sans-serif" font-size="19.6" lengthAdjust="spacingAndGlyphs" textLength="56" x="259.7" y="37.1465">Snake</text><rect fill="#F8F8F8" height="44.2531" style="stroke:#383838;stroke-width:2.0999999999999996;" width="75.6" x="249.9" y="1410.7734"/><text fill="#000000" font-family="sans-serif" font-size="19.6" lengthAdjust="spacingAndGlyphs" textLength="56" x="259.7" y="1440.9199">Snake</text><rect fill="#F8F8F8" height="44.2531" style="stroke:#383838;stroke-width:2.0999999999999996;" width="89.6" x="444.5" y="7"/><text fill="#000000" font-family="sans-serif" font-size="19.6" lengthAdjust="spacingAndGlyphs" textLength="70" x="454.3" y="37.1465">Position</text><rect fill="#F8F8F8" height="44.2531" style="stroke:#383838;stroke-width:2.0999999999999996;" width="89.6" x="444.5" y="1410.7734"/><text fill="#000000" font-family="sans-serif" font-size="19.6" lengthAdjust="spacingAndGlyphs" textLength="70" x="454.3" y="1440.9199">Position</text><rect fill="#F8F8F8" height="44.2531" style="stroke:#383838;stroke-width:2.0999999999999996;" width="65.8" x="651" y="7"/><text fill="#000000" font-family="sans-serif" font-size="19.6" lengthAdjust="spacingAndGlyphs" textLength="46.2" x="660.8" y="37.1465">Food</text><rect fill="#F8F8F8" height="44.2531" style="stroke:#383838;stroke-width:2.0999999999999996;" width="65.8" x="651" y="1410.7734"/><text fill="#000000" font-family="sans-serif" font-size="19.6" lengthAdjust="spacingAndGlyphs" textLength="46.2" x="660.8" y="1440.9199">Food</text><rect fill="#F8F8F8" height="44.2531" style="stroke:#383838;stroke-width:2.0999999999999996;" width="177.8" x="730.8" y="7"/><text fill="#000000" font-family="sans-serif" font-size="19.6" lengthAdjust="spacingAndGlyphs" textLength="158.2" x="740.6" y="37.1465">ScoreInputScreen</text><rect fill="#F8F8F8" height="44.2531" style="stroke:#383838;stroke-width:2.0999999999999996;" width="177.8" x="730.8" y="1410.7734"/><text fill="#000000" font-family="sans-serif" font-size="19.6" lengthAdjust="spacingAndGlyphs" textLength="158.2" x="740.6" y="1440.9199">ScoreInputScreen</text><rect fill="#F8F8F8" height="44.2531" style="stroke:#383838;stroke-width:2.0999999999999996;" width="71.4" x="967.4" y="7"/><text fill="#000000" font-family="sans-serif" font-size="19.6" lengthAdjust="spacingAndGlyphs" textLength="51.8" x="977.2" y="37.1465">Score</text><rect fill="#F8F8F8" height="44.2531" style="stroke:#383838;stroke-width:2.0999999999999996;" width="71.4" x="967.4" y="1410.7734"/><text fill="#000000" font-family="sans-serif" font-size="19.6" lengthAdjust="spacingAndGlyphs" textLength="51.8" x="977.2" y="1440.9199">Score</text><rect fill="#F8F8F8" height="44.2531" style="stroke:#383838;stroke-width:2.0999999999999996;" width="147" x="1052.8" y="7"/><text fill="#000000" font-family="sans-serif" font-size="19.6" lengthAdjust="spacingAndGlyphs" textLength="127.4" x="1062.6" y="37.1465">SnakeElement</text><rect fill="#F8F8F8" height="44.2531" style="stroke:#383838;stroke-width:2.0999999999999996;" width="147" x="1052.8" y="1410.7734"/><text fill="#000000" font-family="sans-serif" font-size="19.6" lengthAdjust="spacingAndGlyphs" textLength="127.4" x="1062.6" y="1440.9199">SnakeElement</text><rect fill="#ABABAB" height="1289.0281" style="stroke:#383838;stroke-width:1.4;" width="14" x="147.7" y="97.9453"/><rect fill="#ABABAB" height="325.8609" style="stroke:#383838;stroke-width:1.4;" width="14" x="280.7" y="140.4375"/><rect fill="#ABABAB" height="19.6" style="stroke:#383838;stroke-width:1.4;" width="14" x="280.7" y="1022.8203"/><rect fill="#ABABAB" height="204.4766" style="stroke:#383838;stroke-width:1.4;" width="14" x="280.7" y="1130.2047"/><rect fill="#ABABAB" height="140.9844" style="stroke:#383838;stroke-width:1.4;" width="14" x="482.3" y="182.9297"/><rect fill="#ABABAB" height="80.2922" style="stroke:#383838;stroke-width:1.4;" width="14" x="482.3" y="366.4063"/><rect fill="#ABABAB" height="19.6" style="stroke:#383838;stroke-width:1.4;" width="14" x="482.3" y="551.2828"/><rect fill="#ABABAB" height="19.6" style="stroke:#383838;stroke-width:1.4;" width="14" x="482.3" y="695.0672"/><rect fill="#ABABAB" height="80.2922" style="stroke:#383838;stroke-width:1.4;" width="14" x="482.3" y="1172.6969"/><rect fill="#ABABAB" height="81.6922" style="stroke:#383838;stroke-width:1.4;" width="14" x="676.9" y="508.7906"/><rect fill="#ABABAB" height="19.6" style="stroke:#383838;stroke-width:1.4;" width="14" x="676.9" y="632.975"/><rect fill="#ABABAB" height="81.6922" style="stroke:#383838;stroke-width:1.4;" width="14" x="812.7" y="853.3438"/><rect fill="#ABABAB" height="19.6" style="stroke:#383838;stroke-width:1.4;" width="14" x="996.1" y="895.8359"/><rect fill="#ABABAB" height="19.6" style="stroke:#383838;stroke-width:1.4;" width="14" x="1119.3" y="1295.4812"/><polygon fill="#383838" points="130.9,92.3453,144.9,97.9453,130.9,103.5453,136.5,97.9453" style="stroke:#383838;stroke-width:1.4;"/><line style="stroke:#383838;stroke-width:1.4;" x1="39.9" x2="139.3" y1="97.9453" y2="97.9453"/><text fill="#000000" font-family="sans-serif" font-size="18.2" lengthAdjust="spacingAndGlyphs" textLength="54.6" x="49.7" y="91.1463">update</text><polygon fill="#383838" points="263.9,134.8375,277.9,140.4375,263.9,146.0375,269.5,140.4375" style="stroke:#383838;stroke-width:1.4;"/><line style="stroke:#383838;stroke-width:1.4;" x1="161.7" x2="272.3" y1="140.4375" y2="140.4375"/><text fill="#000000" font-family="sans-serif" font-size="18.2" lengthAdjust="spacingAndGlyphs" textLength="42" x="171.5" y="133.6385">move</text><polygon fill="#383838" points="465.5,177.3297,479.5,182.9297,465.5,188.5297,471.1,182.9297" style="stroke:#383838;stroke-width:1.4;"/><line style="stroke:#383838;stroke-width:1.4;" x1="294.7" x2="473.9" y1="182.9297" y2="182.9297"/><text fill="#000000" font-family="sans-serif" font-size="18.2" lengthAdjust="spacingAndGlyphs" textLength="161" x="304.5" y="176.1307">&lt;&lt;createPosition&gt;&gt;</text><line style="stroke:#383838;stroke-width:1.4;" x1="496.3" x2="555.1" y1="225.4219" y2="225.4219"/><line style="stroke:#383838;stroke-width:1.4;" x1="555.1" x2="555.1" y1="225.4219" y2="243.6219"/><line style="stroke:#383838;stroke-width:1.4;" x1="497.7" x2="555.1" y1="243.6219" y2="243.6219"/><polygon fill="#383838" points="511.7,238.0219,497.7,243.6219,511.7,249.2219,506.1,243.6219" style="stroke:#383838;stroke-width:1.4;"/><text fill="#000000" font-family="sans-serif" font-size="18.2" lengthAdjust="spacingAndGlyphs" textLength="161" x="506.1" y="218.6229">&lt;&lt;createPosition&gt;&gt;</text><line style="stroke:#383838;stroke-width:1.4;" x1="496.3" x2="555.1" y1="286.1141" y2="286.1141"/><line style="stroke:#383838;stroke-width:1.4;" x1="555.1" x2="555.1" y1="286.1141" y2="304.3141"/><line style="stroke:#383838;stroke-width:1.4;" x1="497.7" x2="555.1" y1="304.3141" y2="304.3141"/><polygon fill="#383838" points="511.7,298.7141,497.7,304.3141,511.7,309.9141,506.1,304.3141" style="stroke:#383838;stroke-width:1.4;"/><text fill="#000000" font-family="sans-serif" font-size="18.2" lengthAdjust="spacingAndGlyphs" textLength="96.6" x="506.1" y="279.315">set Position</text><polygon fill="#383838" points="310.1,318.3141,296.1,323.9141,310.1,329.5141,304.5,323.9141" style="stroke:#383838;stroke-width:1.4;"/><line style="stroke:#383838;stroke-width:1.4;stroke-dasharray:2.0,2.0;" x1="301.7" x2="487.9" y1="323.9141" y2="323.9141"/><polygon fill="#383838" points="465.5,360.8063,479.5,366.4063,465.5,372.0062,471.1,366.4063" style="stroke:#383838;stroke-width:1.4;"/><line style="stroke:#383838;stroke-width:1.4;" x1="294.7" x2="473.9" y1="366.4063" y2="366.4063"/><text fill="#000000" font-family="sans-serif" font-size="18.2" lengthAdjust="spacingAndGlyphs" textLength="42" x="304.5" y="359.6072">move</text><line style="stroke:#383838;stroke-width:1.4;" x1="496.3" x2="555.1" y1="408.8984" y2="408.8984"/><line style="stroke:#383838;stroke-width:1.4;" x1="555.1" x2="555.1" y1="408.8984" y2="427.0984"/><line style="stroke:#383838;stroke-width:1.4;" x1="497.7" x2="555.1" y1="427.0984" y2="427.0984"/><polygon fill="#383838" points="511.7,421.4984,497.7,427.0984,511.7,432.6984,506.1,427.0984" style="stroke:#383838;stroke-width:1.4;"/><text fill="#000000" font-family="sans-serif" font-size="18.2" lengthAdjust="spacingAndGlyphs" textLength="42" x="506.1" y="402.0994">move</text><polygon fill="#383838" points="310.1,441.0984,296.1,446.6984,310.1,452.2984,304.5,446.6984" style="stroke:#383838;stroke-width:1.4;"/><line style="stroke:#383838;stroke-width:1.4;stroke-dasharray:2.0,2.0;" x1="301.7" x2="487.9" y1="446.6984" y2="446.6984"/><polygon fill="#383838" points="177.1,460.6984,163.1,466.2984,177.1,471.8984,171.5,466.2984" style="stroke:#383838;stroke-width:1.4;"/><line style="stroke:#383838;stroke-width:1.4;stroke-dasharray:2.0,2.0;" x1="168.7" x2="286.3" y1="466.2984" y2="466.2984"/><polygon fill="#383838" points="660.1,503.1906,674.1,508.7906,660.1,514.3906,665.7,508.7906" style="stroke:#383838;stroke-width:1.4;"/><line style="stroke:#383838;stroke-width:1.4;" x1="161.7" x2="668.5" y1="508.7906" y2="508.7906"/><text fill="#000000" font-family="sans-serif" font-size="18.2" lengthAdjust="spacingAndGlyphs" textLength="117.6" x="171.5" y="501.9916">checkCollision</text><polygon fill="#383838" points="511.7,545.6828,497.7,551.2828,511.7,556.8828,506.1,551.2828" style="stroke:#383838;stroke-width:1.4;"/><line style="stroke:#383838;stroke-width:1.4;" x1="503.3" x2="675.5" y1="551.2828" y2="551.2828"/><text fill="#000000" font-family="sans-serif" font-size="18.2" lengthAdjust="spacingAndGlyphs" textLength="53.2" x="520.1" y="544.4838">equals</text><polygon fill="#383838" points="660.1,565.2828,674.1,570.8828,660.1,576.4828,665.7,570.8828" style="stroke:#383838;stroke-width:1.4;"/><line style="stroke:#383838;stroke-width:1.4;stroke-dasharray:2.0,2.0;" x1="489.3" x2="668.5" y1="570.8828" y2="570.8828"/><polygon fill="#383838" points="177.1,584.8828,163.1,590.4828,177.1,596.0828,171.5,590.4828" style="stroke:#383838;stroke-width:1.4;"/><line style="stroke:#383838;stroke-width:1.4;stroke-dasharray:2.0,2.0;" x1="168.7" x2="682.5" y1="590.4828" y2="590.4828"/><polygon fill="#383838" points="660.1,627.375,674.1,632.975,660.1,638.575,665.7,632.975" style="stroke:#383838;stroke-width:1.4;"/><line style="stroke:#383838;stroke-width:1.4;" x1="161.7" x2="668.5" y1="632.975" y2="632.975"/><text fill="#000000" font-family="sans-serif" font-size="18.2" lengthAdjust="spacingAndGlyphs" textLength="25.2" x="171.5" y="626.176">eat</text><polygon fill="#383838" points="177.1,646.975,163.1,652.575,177.1,658.175,171.5,652.575" style="stroke:#383838;stroke-width:1.4;"/><line style="stroke:#383838;stroke-width:1.4;stroke-dasharray:2.0,2.0;" x1="168.7" x2="682.5" y1="652.575" y2="652.575"/><polygon fill="#383838" points="465.5,689.4672,479.5,695.0672,465.5,700.6672,471.1,695.0672" style="stroke:#383838;stroke-width:1.4;"/><line style="stroke:#383838;stroke-width:1.4;" x1="161.7" x2="473.9" y1="695.0672" y2="695.0672"/><text fill="#000000" font-family="sans-serif" font-size="18.2" lengthAdjust="spacingAndGlyphs" textLength="53.2" x="171.5" y="688.2682">equals</text><polygon fill="#383838" points="177.1,709.0672,163.1,714.6672,177.1,720.2672,171.5,714.6672" style="stroke:#383838;stroke-width:1.4;"/><line style="stroke:#383838;stroke-width:1.4;stroke-dasharray:2.0,2.0;" x1="168.7" x2="487.9" y1="714.6672" y2="714.6672"/><path d="M72.8,735.6672 L163.8,735.6672 L163.8,746.8672 L149.8,760.8672 L72.8,760.8672 L72.8,735.6672 " fill="#EEEEEE" style="stroke:#000000;stroke-width:1.4;"/><rect fill="none" height="210.5688" style="stroke:#000000;stroke-width:2.8;" width="980" x="72.8" y="735.6672"/><text fill="#000000" font-family="sans-serif" font-size="18.2" font-weight="bold" lengthAdjust="spacingAndGlyphs" textLength="28" x="93.8" y="755.9604">opt</text><text fill="#000000" font-family="sans-serif" font-size="15.4" font-weight="bold" lengthAdjust="spacingAndGlyphs" textLength="113.4" x="184.8" y="754.4537">[score&lt;0 case]</text><line style="stroke:#383838;stroke-width:1.4;" x1="161.7" x2="220.5" y1="792.6516" y2="792.6516"/><line style="stroke:#383838;stroke-width:1.4;" x1="220.5" x2="220.5" y1="792.6516" y2="810.8516"/><line style="stroke:#383838;stroke-width:1.4;" x1="163.1" x2="220.5" y1="810.8516" y2="810.8516"/><polygon fill="#383838" points="177.1,805.2516,163.1,810.8516,177.1,816.4516,171.5,810.8516" style="stroke:#383838;stroke-width:1.4;"/><text fill="#000000" font-family="sans-serif" font-size="18.2" lengthAdjust="spacingAndGlyphs" textLength="78.4" x="171.5" y="785.8525">endGame</text><polygon fill="#383838" points="795.9,847.7438,809.9,853.3438,795.9,858.9437,801.5,853.3438" style="stroke:#383838;stroke-width:1.4;"/><line style="stroke:#383838;stroke-width:1.4;" x1="161.7" x2="804.3" y1="853.3438" y2="853.3438"/><text fill="#000000" font-family="sans-serif" font-size="18.2" lengthAdjust="spacingAndGlyphs" textLength="239.4" x="171.5" y="846.5447">&lt;&lt;createScoreInputScreen&gt;&gt;</text><polygon fill="#383838" points="979.3,890.2359,993.3,895.8359,979.3,901.4359,984.9,895.8359" style="stroke:#383838;stroke-width:1.4;"/><line style="stroke:#383838;stroke-width:1.4;" x1="826.7" x2="987.7" y1="895.8359" y2="895.8359"/><text fill="#000000" font-family="sans-serif" font-size="18.2" lengthAdjust="spacingAndGlyphs" textLength="142.8" x="836.5" y="889.0369">&lt;&lt;createScore&gt;&gt;</text><polygon fill="#383838" points="842.1,909.8359,828.1,915.4359,842.1,921.0359,836.5,915.4359" style="stroke:#383838;stroke-width:1.4;"/><line style="stroke:#383838;stroke-width:1.4;stroke-dasharray:2.0,2.0;" x1="833.7" x2="1001.7" y1="915.4359" y2="915.4359"/><polygon fill="#383838" points="177.1,929.4359,163.1,935.0359,177.1,940.6359,171.5,935.0359" style="stroke:#383838;stroke-width:1.4;"/><line style="stroke:#383838;stroke-width:1.4;stroke-dasharray:2.0,2.0;" x1="168.7" x2="818.3" y1="935.0359" y2="935.0359"/><path d="M72.8,965.8359 L163.8,965.8359 L163.8,977.0359 L149.8,991.0359 L72.8,991.0359 L72.8,965.8359 " fill="#EEEEEE" style="stroke:#000000;stroke-width:1.4;"/><rect fill="none" height="87.7844" style="stroke:#000000;stroke-width:2.8;" width="334.6" x="72.8" y="965.8359"/><text fill="#000000" font-family="sans-serif" font-size="18.2" font-weight="bold" lengthAdjust="spacingAndGlyphs" textLength="28" x="93.8" y="986.1291">opt</text><text fill="#000000" font-family="sans-serif" font-size="15.4" font-weight="bold" lengthAdjust="spacingAndGlyphs" textLength="215.6" x="184.8" y="984.6225">[snake.body.size()-1&gt;score]</text><polygon fill="#383838" points="263.9,1017.2203,277.9,1022.8203,263.9,1028.4203,269.5,1022.8203" style="stroke:#383838;stroke-width:1.4;"/><line style="stroke:#383838;stroke-width:1.4;" x1="161.7" x2="272.3" y1="1022.8203" y2="1022.8203"/><text fill="#000000" font-family="sans-serif" font-size="18.2" lengthAdjust="spacingAndGlyphs" textLength="92.4" x="171.5" y="1016.0213">removeLast</text><polygon fill="#383838" points="177.1,1036.8203,163.1,1042.4203,177.1,1048.0203,171.5,1042.4203" style="stroke:#383838;stroke-width:1.4;"/><line style="stroke:#383838;stroke-width:1.4;stroke-dasharray:2.0,2.0;" x1="168.7" x2="286.3" y1="1042.4203" y2="1042.4203"/><path d="M72.8,1073.2203 L163.8,1073.2203 L163.8,1084.4203 L149.8,1098.4203 L72.8,1098.4203 L72.8,1073.2203 " fill="#EEEEEE" style="stroke:#000000;stroke-width:1.4;"/><rect fill="none" height="272.6609" style="stroke:#000000;stroke-width:2.8;" width="1141" x="72.8" y="1073.2203"/><text fill="#000000" font-family="sans-serif" font-size="18.2" font-weight="bold" lengthAdjust="spacingAndGlyphs" textLength="28" x="93.8" y="1093.5135">opt</text><text fill="#000000" font-family="sans-serif" font-size="15.4" font-weight="bold" lengthAdjust="spacingAndGlyphs" textLength="215.6" x="184.8" y="1092.0068">[snake.body.size()-1&lt;score]</text><polygon fill="#383838" points="263.9,1124.6047,277.9,1130.2047,263.9,1135.8047,269.5,1130.2047" style="stroke:#383838;stroke-width:1.4;"/><line style="stroke:#383838;stroke-width:1.4;" x1="161.7" x2="272.3" y1="1130.2047" y2="1130.2047"/><text fill="#000000" font-family="sans-serif" font-size="18.2" lengthAdjust="spacingAndGlyphs" textLength="71.4" x="171.5" y="1123.4057">addBody</text><polygon fill="#383838" points="465.5,1167.0969,479.5,1172.6969,465.5,1178.2969,471.1,1172.6969" style="stroke:#383838;stroke-width:1.4;"/><line style="stroke:#383838;stroke-width:1.4;" x1="294.7" x2="473.9" y1="1172.6969" y2="1172.6969"/><text fill="#000000" font-family="sans-serif" font-size="18.2" lengthAdjust="spacingAndGlyphs" textLength="161" x="304.5" y="1165.8979">&lt;&lt;createPosition&gt;&gt;</text><line style="stroke:#383838;stroke-width:1.4;" x1="496.3" x2="555.1" y1="1215.1891" y2="1215.1891"/><line style="stroke:#383838;stroke-width:1.4;" x1="555.1" x2="555.1" y1="1215.1891" y2="1233.3891"/><line style="stroke:#383838;stroke-width:1.4;" x1="497.7" x2="555.1" y1="1233.3891" y2="1233.3891"/><polygon fill="#383838" points="511.7,1227.7891,497.7,1233.3891,511.7,1238.9891,506.1,1233.3891" style="stroke:#383838;stroke-width:1.4;"/><text fill="#000000" font-family="sans-serif" font-size="18.2" lengthAdjust="spacingAndGlyphs" textLength="96.6" x="506.1" y="1208.39">set Position</text><polygon fill="#383838" points="310.1,1247.3891,296.1,1252.9891,310.1,1258.5891,304.5,1252.9891" style="stroke:#383838;stroke-width:1.4;"/><line style="stroke:#383838;stroke-width:1.4;stroke-dasharray:2.0,2.0;" x1="301.7" x2="487.9" y1="1252.9891" y2="1252.9891"/><polygon fill="#383838" points="1102.5,1289.8813,1116.5,1295.4812,1102.5,1301.0813,1108.1,1295.4812" style="stroke:#383838;stroke-width:1.4;"/><line style="stroke:#383838;stroke-width:1.4;" x1="294.7" x2="1110.9" y1="1295.4812" y2="1295.4812"/><text fill="#000000" font-family="sans-serif" font-size="18.2" lengthAdjust="spacingAndGlyphs" textLength="214.2" x="304.5" y="1288.6822">&lt;&lt;createSnakeElement&gt;&gt;</text><polygon fill="#383838" points="310.1,1309.4812,296.1,1315.0813,310.1,1320.6812,304.5,1315.0813" style="stroke:#383838;stroke-width:1.4;"/><line style="stroke:#383838;stroke-width:1.4;stroke-dasharray:2.0,2.0;" x1="301.7" x2="1124.9" y1="1315.0813" y2="1315.0813"/><polygon fill="#383838" points="177.1,1329.0813,163.1,1334.6812,177.1,1340.2813,171.5,1334.6812" style="stroke:#383838;stroke-width:1.4;"/><line style="stroke:#383838;stroke-width:1.4;stroke-dasharray:2.0,2.0;" x1="168.7" x2="286.3" y1="1334.6812" y2="1334.6812"/><polygon fill="#383838" points="55.3,1381.3734,41.3,1386.9734,55.3,1392.5734,49.7,1386.9734" style="stroke:#383838;stroke-width:1.4;"/><line style="stroke:#383838;stroke-width:1.4;stroke-dasharray:2.0,2.0;" x1="46.9" x2="153.3" y1="1386.9734" y2="1386.9734"/><text fill="#000000" font-family="sans-serif" font-size="18.2" lengthAdjust="spacingAndGlyphs" textLength="64.4" x="63.7" y="1380.1744">updated</text><!--MD5=[38cdb6878a6106c7aa67cc9e36c9d23d]
@startuml

skinparam monochrome true
skinparam linetype ortho
skinparam shadowing false
skinparam sequence {
LifeLineBackgroundColor #DarkSalmon
}

Actor -> GameScreen : update
activate GameScreen
        GameScreen -> Snake : move
        activate Snake
        Snake -> Position : <<createPosition>>
            activate Position
                Position -> Position : <<createPosition>>
                Position -> Position : set Position
                Position - -> Snake :
            deactivate Position

            Snake -> Position : move

            activate Position
                Position -> Position : move
                Position - -> Snake
            deactivate Position
            Snake - -> GameScreen
        deactivate Snake

    GameScreen -> Food : checkCollision
        activate Food
            Food -> Position : equals
            activate Position
                Position - -> Food
            deactivate Position
            Food - -> GameScreen
        deactivate Food
    GameScreen -> Food : eat
    activate Food
        Food - -> GameScreen
    deactivate Food
    GameScreen -> Position : equals
    activate Position
        Position - -> GameScreen
    deactivate Position

        opt score<0 case
        GameScreen -> GameScreen : endGame
            GameScreen -> ScoreInputScreen : <<createScoreInputScreen>>
        activate ScoreInputScreen
            ScoreInputScreen -> Score : <<createScore>>
            activate Score
                Score - -> ScoreInputScreen
            deactivate Score
            ScoreInputScreen - -> GameScreen
        deactivate ScoreInputScreen
        end

    opt snake.body.size()-1>score
        GameScreen -> Snake : removeLast
        activate Snake
            Snake - -> GameScreen
        deactivate Snake
    end

    opt snake.body.size()-1<score
    GameScreen -> Snake : addBody
    activate Snake
        Snake -> Position : <<createPosition>>
        activate Position
            Position -> Position : set Position
            Position - -> Snake
        deactivate Position
        Snake -> SnakeElement : <<createSnakeElement>>
        activate SnakeElement
        SnakeElement - -> Snake
        deactivate SnakeElement
        Snake - -> GameScreen
    deactivate Snake
    end

GameScreen - -> Actor : updated
deactivate GameScreen


@enduml

PlantUML version 1.2020.23(Sun Dec 13 20:14:58 CET 2020)
(GPL source distribution)
Java Runtime: OpenJDK Runtime Environment
JVM: OpenJDK 64-Bit Server VM
Default Encoding: Cp1250
Language: pl
Country: PL
--></g></svg>