<?xml version="1.0" encoding="UTF-8" standalone="no"?><svg xmlns="http://www.w3.org/2000/svg" xmlns:xlink="http://www.w3.org/1999/xlink" contentScriptType="application/ecmascript" contentStyleType="text/css" height="401.8px" preserveAspectRatio="none" style="width:637px;height:401px;" version="1.1" viewBox="0 0 637 401" width="637px" zoomAndPan="magnify"><defs/><g><rect fill="#ABABAB" height="228.7687" style="stroke:#383838;stroke-width:1.4;" width="14" x="168.7" y="97.9453"/><rect fill="#ABABAB" height="19.6" style="stroke:#383838;stroke-width:1.4;" width="14" x="352.1" y="140.4375"/><rect fill="#ABABAB" height="19.6" style="stroke:#383838;stroke-width:1.4;" width="14" x="352.1" y="245.0219"/><rect fill="#ABABAB" height="81.6922" style="stroke:#383838;stroke-width:1.4;" width="14" x="535.5" y="202.5297"/><line style="stroke:#383838;stroke-width:1.4;stroke-dasharray:5.0,5.0;" x1="39.2" x2="39.2" y1="52.6531" y2="351.9141"/><line style="stroke:#383838;stroke-width:1.4;stroke-dasharray:5.0,5.0;" x1="175" x2="175" y1="52.6531" y2="351.9141"/><line style="stroke:#383838;stroke-width:1.4;stroke-dasharray:5.0,5.0;" x1="358.4" x2="358.4" y1="52.6531" y2="351.9141"/><line style="stroke:#383838;stroke-width:1.4;stroke-dasharray:5.0,5.0;" x1="542.5" x2="542.5" y1="52.6531" y2="351.9141"/><rect fill="#F8F8F8" height="44.2531" style="stroke:#383838;stroke-width:2.0999999999999996;" width="65.8" x="7" y="7"/><text fill="#000000" font-family="sans-serif" font-size="19.6" lengthAdjust="spacingAndGlyphs" textLength="46.2" x="16.8" y="37.1465">Actor</text><rect fill="#F8F8F8" height="44.2531" style="stroke:#383838;stroke-width:2.0999999999999996;" width="65.8" x="7" y="350.5141"/><text fill="#000000" font-family="sans-serif" font-size="19.6" lengthAdjust="spacingAndGlyphs" textLength="46.2" x="16.8" y="380.6605">Actor</text><rect fill="#F8F8F8" height="44.2531" style="stroke:#383838;stroke-width:2.0999999999999996;" width="177.8" x="86.8" y="7"/><text fill="#000000" font-family="sans-serif" font-size="19.6" lengthAdjust="spacingAndGlyphs" textLength="158.2" x="96.6" y="37.1465">ScoreInputScreen</text><rect fill="#F8F8F8" height="44.2531" style="stroke:#383838;stroke-width:2.0999999999999996;" width="177.8" x="86.8" y="350.5141"/><text fill="#000000" font-family="sans-serif" font-size="19.6" lengthAdjust="spacingAndGlyphs" textLength="158.2" x="96.6" y="380.6605">ScoreInputScreen</text><rect fill="#F8F8F8" height="44.2531" style="stroke:#383838;stroke-width:2.0999999999999996;" width="71.4" x="323.4" y="7"/><text fill="#000000" font-family="sans-serif" font-size="19.6" lengthAdjust="spacingAndGlyphs" textLength="51.8" x="333.2" y="37.1465">Score</text><rect fill="#F8F8F8" height="44.2531" style="stroke:#383838;stroke-width:2.0999999999999996;" width="71.4" x="323.4" y="350.5141"/><text fill="#000000" font-family="sans-serif" font-size="19.6" lengthAdjust="spacingAndGlyphs" textLength="51.8" x="333.2" y="380.6605">Score</text><rect fill="#F8F8F8" height="44.2531" style="stroke:#383838;stroke-width:2.0999999999999996;" width="173.6" x="455.7" y="7"/><text fill="#000000" font-family="sans-serif" font-size="19.6" lengthAdjust="spacingAndGlyphs" textLength="154" x="465.5" y="37.1465">HighScoreScreen</text><rect fill="#F8F8F8" height="44.2531" style="stroke:#383838;stroke-width:2.0999999999999996;" width="173.6" x="455.7" y="350.5141"/><text fill="#000000" font-family="sans-serif" font-size="19.6" lengthAdjust="spacingAndGlyphs" textLength="154" x="465.5" y="380.6605">HighScoreScreen</text><rect fill="#ABABAB" height="228.7687" style="stroke:#383838;stroke-width:1.4;" width="14" x="168.7" y="97.9453"/><rect fill="#ABABAB" height="19.6" style="stroke:#383838;stroke-width:1.4;" width="14" x="352.1" y="140.4375"/><rect fill="#ABABAB" height="19.6" style="stroke:#383838;stroke-width:1.4;" width="14" x="352.1" y="245.0219"/><rect fill="#ABABAB" height="81.6922" style="stroke:#383838;stroke-width:1.4;" width="14" x="535.5" y="202.5297"/><polygon fill="#383838" points="151.9,92.3453,165.9,97.9453,151.9,103.5453,157.5,97.9453" style="stroke:#383838;stroke-width:1.4;"/><line style="stroke:#383838;stroke-width:1.4;" x1="39.9" x2="160.3" y1="97.9453" y2="97.9453"/><text fill="#000000" font-family="sans-serif" font-size="18.2" lengthAdjust="spacingAndGlyphs" textLength="85.4" x="49.7" y="91.1463">saveToFile</text><polygon fill="#383838" points="335.3,134.8375,349.3,140.4375,335.3,146.0375,340.9,140.4375" style="stroke:#383838;stroke-width:1.4;"/><line style="stroke:#383838;stroke-width:1.4;" x1="182.7" x2="343.7" y1="140.4375" y2="140.4375"/><text fill="#000000" font-family="sans-serif" font-size="18.2" lengthAdjust="spacingAndGlyphs" textLength="142.8" x="192.5" y="133.6385">&lt;&lt;createScore&gt;&gt;</text><polygon fill="#383838" points="198.1,154.4375,184.1,160.0375,198.1,165.6375,192.5,160.0375" style="stroke:#383838;stroke-width:1.4;"/><line style="stroke:#383838;stroke-width:1.4;stroke-dasharray:2.0,2.0;" x1="189.7" x2="357.7" y1="160.0375" y2="160.0375"/><polygon fill="#383838" points="518.7,196.9297,532.7,202.5297,518.7,208.1297,524.3,202.5297" style="stroke:#383838;stroke-width:1.4;"/><line style="stroke:#383838;stroke-width:1.4;" x1="182.7" x2="527.1" y1="202.5297" y2="202.5297"/><text fill="#000000" font-family="sans-serif" font-size="18.2" lengthAdjust="spacingAndGlyphs" textLength="236.6" x="192.5" y="195.7307">&lt;&lt;createHighScoreScreen&gt;&gt;</text><polygon fill="#383838" points="381.5,239.4219,367.5,245.0219,381.5,250.6219,375.9,245.0219" style="stroke:#383838;stroke-width:1.4;"/><line style="stroke:#383838;stroke-width:1.4;" x1="373.1" x2="534.1" y1="245.0219" y2="245.0219"/><text fill="#000000" font-family="sans-serif" font-size="18.2" lengthAdjust="spacingAndGlyphs" textLength="142.8" x="389.9" y="238.2229">&lt;&lt;createScore&gt;&gt;</text><polygon fill="#383838" points="518.7,259.0219,532.7,264.6219,518.7,270.2219,524.3,264.6219" style="stroke:#383838;stroke-width:1.4;"/><line style="stroke:#383838;stroke-width:1.4;stroke-dasharray:2.0,2.0;" x1="359.1" x2="527.1" y1="264.6219" y2="264.6219"/><polygon fill="#383838" points="198.1,278.6219,184.1,284.2219,198.1,289.8219,192.5,284.2219" style="stroke:#383838;stroke-width:1.4;"/><line style="stroke:#383838;stroke-width:1.4;stroke-dasharray:2.0,2.0;" x1="189.7" x2="541.1" y1="284.2219" y2="284.2219"/><polygon fill="#383838" points="55.3,321.1141,41.3,326.7141,55.3,332.3141,49.7,326.7141" style="stroke:#383838;stroke-width:1.4;"/><line style="stroke:#383838;stroke-width:1.4;stroke-dasharray:2.0,2.0;" x1="46.9" x2="174.3" y1="326.7141" y2="326.7141"/><text fill="#000000" font-family="sans-serif" font-size="18.2" lengthAdjust="spacingAndGlyphs" textLength="95.2" x="63.7" y="319.915">savedToFile</text><!--MD5=[8c2741343edfb169ab8dfe2130af79fc]
@startuml

skinparam monochrome true
skinparam linetype ortho
skinparam shadowing false
skinparam sequence {
LifeLineBackgroundColor #DarkSalmon
}

Actor -> ScoreInputScreen : saveToFile
activate ScoreInputScreen
    ScoreInputScreen -> Score : <<createScore>>
    activate Score
        Score - -> ScoreInputScreen
    deactivate Score
    
    ScoreInputScreen -> HighScoreScreen : <<createHighScoreScreen>>
    activate HighScoreScreen
        HighScoreScreen -> Score : <<createScore>>
        activate Score
            Score - -> HighScoreScreen
        deactivate Score
        HighScoreScreen - -> ScoreInputScreen
    deactivate HighScoreScreen
    ScoreInputScreen - -> Actor : savedToFile

deactivate ScoreInputScreen


@enduml

PlantUML version 1.2020.23(Sun Dec 13 20:14:58 CET 2020)
(GPL source distribution)
Java Runtime: OpenJDK Runtime Environment
JVM: OpenJDK 64-Bit Server VM
Default Encoding: Cp1250
Language: pl
Country: PL
--></g></svg>